;Layer: Drill PTH
;EasyEDA v6.4.7, 2021-01-19T01:18:58--8:00
;5c983e547ce9454fba3114fb1a11af02,NaN
;Gerber Generator version 0.2
M48
INCH,LZ,00.0000
;Holesize 1 = 0.012 INCH
T01C0.012
;Holesize 2 = 0.036 INCH
T02C0.036
;Holesize 3 = 0.040 INCH
T03C0.040
;Holesize 4 = 0.085 INCH
T04C0.085
%
G05
G90
T01
X+006950Y+029700
X+007000Y+027900
X+007000Y+025950
X+007000Y+024250
X+006900Y+022200
X+006950Y+020450
X+008550Y+018950
X+007050Y+018950
X+007050Y+019450
X+006850Y+021250
X+007000Y+023350
X+007050Y+025000
X+007000Y+026850
X+007000Y+028700
X+007000Y+030600
X+005800Y+000350
X+005850Y+002100
X+000400Y+002100
X+000400Y+001150
X+001100Y+000350
X+002350Y+000300
X+003100Y+000250
X+004900Y+000300
X+002050Y+002100
X+003350Y+002100
X+004650Y+002100
X+005350Y+001250
X+002250Y+001250
X+001700Y+000950
X+006500Y+002100
X+010250Y+002100
X+009150Y+002100
X+007800Y+002100
X+006450Y+001200
X+006550Y+000350
X+007250Y+000350
X+009150Y+000400
X+010900Y+000400
X+011550Y+001050
X+011600Y+002150
X+011350Y+001650
X+010050Y+000350
X+009600Y+001250
X+010200Y+001250
X+004700Y+034850
X+005000Y+034050
X+004950Y+033650
X+005000Y+033250
X+004900Y+032650
X+003650Y+032650
X+002300Y+032650
X+000450Y+032650
X+000450Y+034150
X+001050Y+034850
X+002650Y+034850
X+002250Y+033750
X+001100Y+032800
X+001000Y+033850
X+006550Y+032650
X+007850Y+032650
X+007050Y+033650
X+007550Y+034950
X+009650Y+034900
X+010850Y+034900
X+011550Y+034250
X+011600Y+032650
X+010050Y+032650
X+009050Y+032650
X+011200Y+033450
X+010000Y+034300
X+009850Y+033450
X+005700Y+030750
X+005700Y+029500
X+005700Y+028600
X+005700Y+027200
X+005750Y+025800
X+005800Y+024700
X+005800Y+023550
X+005750Y+022350
X+005700Y+021050
X+005700Y+020100
X+005750Y+019050
X+005750Y+018050
X+005750Y+016550
X+005700Y+015450
X+005700Y+014200
X+005700Y+013050
X+005750Y+011500
X+005750Y+009750
X+005750Y+008200
X+005750Y+007400
X+006500Y+017800
X+006450Y+016250
X+006450Y+014750
X+006550Y+013150
X+006600Y+011400
X+006550Y+009600
X+006550Y+007950
X+005700Y+006200
X+005750Y+004550
X+005750Y+003450
X+006600Y+006150
X+006700Y+004050
X+006800Y+002550
X+011600Y+004000
X+011600Y+006350
X+011600Y+008650
X+011600Y+011000
X+011600Y+013050
X+011550Y+015100
X+011600Y+017200
X+011550Y+019850
X+011600Y+022850
X+011600Y+025500
X+011550Y+028550
X+011600Y+030850
X+000400Y+030800
X+000300Y+028600
X+000350Y+025750
X+000400Y+023150
X+000400Y+020150
X+000400Y+017500
X+000400Y+014300
X+000400Y+011250
X+000450Y+008450
X+000400Y+006350
X+000400Y+004000
T02
X+009450Y+018550
X+002550Y+018550
X+009450Y+003050
X+002550Y+003050
X+008100Y+000950
X+003900Y+000950
X+008450Y+034050
X+003750Y+034050
T03
X+003000Y+019850
X+003000Y+020850
X+007500Y+031850
X+006500Y+031850
X+005500Y+031850
X+004500Y+031850
X+009000Y+020850
X+009000Y+019850
X+006500Y+034700
X+005500Y+034700
T04
X+008450Y+034050
X+003750Y+034050
X+008100Y+000950
X+003900Y+000950
M30
